<svg width="1236" height="409" viewBox="0 0 1236 409" fill="none" xmlns="http://www.w3.org/2000/svg">
<path d="M1236 409C1236 381.417 1225.04 354.965 1205.54 335.461C1186.04 315.957 1159.58 305 1132 305C1104.42 305 1077.97 315.957 1058.46 335.461C1038.96 354.965 1028 381.417 1028 409L1132 409H1236Z" fill="white"/>
<path d="M0.066648 180.133C23.9538 193.925 52.3412 197.662 78.9838 190.523C105.626 183.384 128.342 165.954 142.133 142.067C155.925 118.179 159.662 89.7921 152.523 63.1495C145.384 36.5068 127.954 13.7913 104.067 1.43051e-06L52.0667 90.0666L0.066648 180.133Z" fill="white"/>
</svg>
